<?xml version="1.0" encoding="UTF-8"?>
<svg width="50px" height="50px" viewBox="0 0 50 50" version="1.1" xmlns="http://www.w3.org/2000/svg" xmlns:xlink="http://www.w3.org/1999/xlink">
    <title>添加图片按钮</title>
    <defs>
        <rect id="path-1" x="0" y="0" width="50" height="50" rx="4"></rect>
        <mask id="mask-2" maskContentUnits="userSpaceOnUse" maskUnits="objectBoundingBox" x="0" y="0" width="50" height="50" fill="white">
            <use xlink:href="#path-1"></use>
        </mask>
    </defs>
    <g id="修改2" stroke="none" stroke-width="1" fill="none" fill-rule="evenodd">
        <g id="视频播放切图" transform="translate(-161.000000, -498.000000)">
            <g id="添加图片按钮" transform="translate(161.000000, 498.000000)">
                <use id="虚线框" stroke="#E2E2E2" mask="url(#mask-2)" stroke-width="2" stroke-dasharray="2" xlink:href="#path-1"></use>
                <g id="相机icon" transform="translate(13.000000, 9.000000)" fill="#C3C3C3" fill-rule="nonzero">
                    <path d="M22.1067945,3.94725379 C21.4953362,3.33579545 20.7748343,3.05999053 19.9431818,3.05999053 L17.2771307,3.05999053 L16.6656723,1.4500947 C16.498911,1.06098485 16.2209754,0.727462121 15.8339962,0.451680871 C15.4448864,0.173745265 15.0023201,0.00698390152 14.6132102,0.00698390152 L8.5071733,0.00698390152 C8.06247633,0.00698390152 7.67549716,0.173745265 7.28641098,0.451680871 C6.89730114,0.729616477 6.61936553,1.0631392 6.45473485,1.4500947 L5.78768939,3.05999053 L3.06818182,3.05999053 C2.23650568,3.05999053 1.51389678,3.33792614 0.904569129,3.94725379 C0.293087121,4.55871212 0.017282197,5.27921402 0.017282197,6.11302083 L0.017282197,16.8263731 C0.017282197,17.6580492 0.295217803,18.3806818 0.904545455,18.9921402 C1.51600379,19.6035985 2.23650568,19.8793797 3.06815814,19.8793797 L19.9410275,19.8793797 C20.7727036,19.8793797 21.4953125,19.6014441 22.1046165,18.9921402 C22.7160985,18.3806818 22.9919157,17.6601799 22.9919157,16.8263731 L22.9919157,6.11302083 C22.9940341,5.27921402 22.7182292,4.55871212 22.1067708,3.94725379 L22.1067945,3.94725379 Z M11.5046165,16.326089 C8.72952178,16.326089 6.45260417,14.0512784 6.45260417,11.2740767 C6.45260417,8.49898201 8.7273911,6.22204072 11.5046165,6.22204072 C14.2818419,6.22204072 16.5566288,8.49685133 16.5566288,11.2740767 C16.5566288,14.0513021 14.2796875,16.326089 11.5046165,16.326089 Z" id="形状"></path>
                    <path d="M11.5046165,7.94524148 C9.61678504,7.94524148 8.11806345,9.44396307 8.11806345,11.3317945 C8.11806345,13.2196259 9.61678504,14.7183239 11.5046165,14.7183239 C13.3924479,14.7183239 14.8911458,13.2196259 14.8911458,11.3317945 C14.8911458,9.44396307 13.3924479,7.94524148 11.5046165,7.94524148 L11.5046165,7.94524148 Z" id="路径"></path>
                </g>
                <text id="添加图片" font-family="PingFangSC-Regular, PingFang SC" font-size="10" font-weight="normal" fill="#999999">
                    <tspan x="5" y="43">添加图片</tspan>
                </text>
            </g>
        </g>
    </g>
</svg>