<?xml version="1.0" encoding="UTF-8"?>
<svg width="26px" height="26px" viewBox="0 0 26 26" version="1.1" xmlns="http://www.w3.org/2000/svg" xmlns:xlink="http://www.w3.org/1999/xlink">
    <title>未打星</title>
    <g id="修改2" stroke="none" stroke-width="1" fill="none" fill-rule="evenodd">
        <g id="视频播放切图" transform="translate(-49.000000, -498.000000)">
            <g id="未打星" transform="translate(49.000000, 498.000000)">
                <rect id="矩形" x="0" y="0" width="26" height="26"></rect>
                <path d="M13,19.5 L6.47971182,22.9279184 C6.17418395,23.0885439 5.79629198,22.9710773 5.63566647,22.6655494 C5.57170455,22.5438866 5.54963288,22.4045316 5.57286841,22.2690581 L6.81813264,15.0086105 L6.81813264,15.0086105 L1.5431087,9.86673293 C1.29593146,9.62579467 1.29087377,9.23009888 1.53181202,8.98292164 C1.6277549,8.88449437 1.75346891,8.82043988 1.88949205,8.80067456 L9.17939586,7.74138954 L9.17939586,7.74138954 L12.43954,1.13561609 C12.5923039,0.826082557 12.96707,0.698995683 13.2766036,0.851759616 C13.3998614,0.912591015 13.4996286,1.01235822 13.56046,1.13561609 L16.8206041,7.74138954 L16.8206041,7.74138954 L24.1105079,8.80067456 C24.4520985,8.85031058 24.6887744,9.16746236 24.6391384,9.5090529 C24.6193731,9.64507604 24.5553186,9.77079005 24.4568913,9.86673293 L19.1818674,15.0086105 L19.1818674,15.0086105 L20.4271316,22.2690581 C20.4854822,22.6092683 20.2569898,22.9323658 19.9167796,22.9907164 C19.781306,23.0139519 19.641951,22.9918803 19.5202882,22.9279184 L13,19.5 L13,19.5 Z" id="弹窗-未点击星星" fill="#E2E2E2"></path>
            </g>
        </g>
    </g>
</svg>