<?xml version="1.0" encoding="UTF-8"?>
<svg width="80px" height="28px" viewBox="0 0 80 28" version="1.1" xmlns="http://www.w3.org/2000/svg" xmlns:xlink="http://www.w3.org/1999/xlink">
    <title>标签-热卖</title>
    <defs>
        <linearGradient x1="100%" y1="46.21875%" x2="0%" y2="53.78125%" id="linearGradient-1">
            <stop stop-color="#62320A" offset="0%"></stop>
            <stop stop-color="#9B6117" offset="100%"></stop>
        </linearGradient>
        <linearGradient x1="50%" y1="0%" x2="50%" y2="100%" id="linearGradient-2">
            <stop stop-color="#FFBA00" offset="0%"></stop>
            <stop stop-color="#FF2D2E" offset="100%"></stop>
        </linearGradient>
    </defs>
    <g id="页面-1" stroke="none" stroke-width="1" fill="none" fill-rule="evenodd">
        <g id="切图" transform="translate(-93.000000, -200.000000)">
            <g id="标签-热卖" transform="translate(93.000000, 200.000000)">
                <g id="编组-53" transform="translate(0.000000, 6.000000)" fill="url(#linearGradient-1)">
                    <path d="M11.2222222,0 L80,0 L80,0 L80,12 C80,17.5228475 75.5228475,22 70,22 L15.6666667,22 C9.1384969,22 3.51492911,17.3988991 2.22222222,11 C1.21806813,6.02943725 4.43347766,1.18597227 9.4040404,0.181818182 C10.0025479,0.0609075852 10.6116237,-1.66419171e-15 11.2222222,0 Z" id="矩形"></path>
                </g>
                <g id="编组-52">
                    <circle id="椭圆形" fill="url(#linearGradient-2)" cx="14" cy="14" r="14"></circle>
                    <g id="火" transform="translate(3.500000, 3.500000)" fill-rule="nonzero">
                        <rect id="矩形" fill="#000000" opacity="0" x="0" y="0" width="21" height="21"></rect>
                        <path d="M8.68463905,19.5 C8.68463905,19.5 0.9238603,17.7441964 4.39246552,9.02946429 C4.39246552,9.02946429 5.17996514,9.99776786 5.07175909,10.4638393 C5.07175909,10.4638393 5.68893437,8.2640625 7.0214719,6.95022321 C8.16565074,5.82120536 9.32786393,2.64709821 8.25582246,1.5 C8.25582246,1.5 13.5659344,2.64709821 14.1570601,8.38459821 C14.1570601,8.38459821 14.8363537,6.55647321 16.2310095,6.37566964 C16.2310095,6.37566964 15.8021929,7.38013393 16.2310095,8.88683036 C16.2310095,8.88683036 20.6293853,16.63125 13.0489499,19.2488839 C13.0489499,19.2488839 15.3212771,16.5950893 10.5021,12.0408482 C10.5021,12.0408482 9.36593643,14.4796875 8.68664286,15.3395089 C8.68463905,15.3415179 6.78902926,17.5272321 8.68463905,19.5 Z" id="路径" fill="#FFFFFF"></path>
                    </g>
                </g>
            </g>
        </g>
    </g>
</svg>