<?xml version="1.0" encoding="UTF-8"?>
<svg width="20px" height="20px" viewBox="0 0 20 20" version="1.1" xmlns="http://www.w3.org/2000/svg" xmlns:xlink="http://www.w3.org/1999/xlink">
    <title>编组 20备份 2</title>
    <g id="页面-1" stroke="none" stroke-width="1" fill="none" fill-rule="evenodd">
        <g id="切图" transform="translate(-2784.000000, -757.000000)" stroke="#BBBBBB">
            <g id="编组-16" transform="translate(2672.000000, 758.000000)">
                <g id="编组-20备份-2" transform="translate(113.142857, 0.000000)">
                    <path d="M16.6483125,5.63230758 L12.6126463,5.02171066 C12.4445833,4.99701741 12.2980669,4.88702017 12.222654,4.72763641 L10.419209,0.918140215 C10.1498773,0.35019529 9.60690455,0 9.00144689,0 C8.39383457,0 7.85086187,0.352440132 7.58368482,0.918140215 L5.78023976,4.72763641 C5.70482688,4.88702017 5.55831044,4.99701741 5.39024746,5.02171066 L1.35458127,5.63230758 C1.01199135,5.68393894 0.690947961,5.8545469 0.449626758,6.11270368 L0.391451111,6.17780409 L0.38498715,6.18453861 C-0.162294864,6.8422772 -0.121356445,7.83449719 0.477637255,8.44284927 L3.39719288,11.408285 C3.52000813,11.5317513 3.57387447,11.7113386 3.54586398,11.8841914 L2.85637483,16.0730659 C2.79819918,16.4277508 2.85422017,16.8003946 3.01581919,17.1191621 L3.05460296,17.1932418 L3.05891226,17.1999764 C3.35409981,17.7118002 3.87768063,17.99914 4.41634403,17.99914 C4.66412919,17.99914 4.91622367,17.9385292 5.15108091,17.8105733 L8.76012568,15.8328678 C8.91095144,15.7498087 9.08978768,15.7498087 9.24061344,15.8328678 L12.8496582,17.8105733 C13.155619,17.9789364 13.5132915,18.0373023 13.8537268,17.9766916 L13.9312943,17.9609777 L13.9377583,17.9587328 C14.7565266,17.7634316 15.2865714,16.935085 15.1443643,16.0730659 L14.4548751,11.8864363 C14.4268646,11.7113386 14.480731,11.5339962 14.6035462,11.4105299 L17.5231019,8.44509411 C17.770887,8.19367185 17.9346407,7.85919045 17.9841977,7.50226064 L17.9928163,7.42144634 L17.9928163,7.41246697 C18.0725385,6.53922359 17.4800088,5.75801871 16.6483125,5.63230758 Z" id="路径"></path>
                </g>
            </g>
        </g>
    </g>
</svg>