<?xml version="1.0" encoding="UTF-8"?>
<svg width="260px" height="180px" viewBox="0 0 260 180" version="1.1" xmlns="http://www.w3.org/2000/svg" xmlns:xlink="http://www.w3.org/1999/xlink">
    <title>编组 13</title>
    <defs>
        <rect id="path-1" x="0" y="0" width="65" height="100"></rect>
        <rect id="path-3" x="0" y="0" width="56" height="56"></rect>
        <linearGradient x1="31.4151399%" y1="4.41221335%" x2="50%" y2="100%" id="linearGradient-5">
            <stop stop-color="#6DD53A" offset="0%"></stop>
            <stop stop-color="#53C31B" offset="100%"></stop>
        </linearGradient>
    </defs>
    <g id="页面-1" stroke="none" stroke-width="1" fill="none" fill-rule="evenodd">
        <g id="切图" transform="translate(-2655.000000, -944.000000)">
            <g id="编组-13" transform="translate(2655.000000, 944.000000)">
                <rect id="矩形备份-2" stroke="#979797" fill="#D8D8D8" opacity="0" x="0.5" y="0.5" width="259" height="179"></rect>
                <g id="编组-12" transform="translate(25.558886, 49.445899)">
                    <g id="编组-16备份" transform="translate(127.441114, 20.554101)">
                        <mask id="mask-2" fill="white">
                            <use xlink:href="#path-1"></use>
                        </mask>
                        <g id="蒙版"></g>
                        <g mask="url(#mask-2)">
                            <g transform="translate(-0.302996, 1.249859)">
                                <circle id="椭圆形" stroke="none" fill="#B0B2C8" fill-rule="evenodd" opacity="0.100000001" cx="32.8091966" cy="80.0544397" r="32.8091966"></circle>
                                <circle id="椭圆形备份-15" stroke="none" fill="#B0B2C8" fill-rule="evenodd" opacity="0.100000001" cx="32.8091966" cy="23.6226216" r="23.6226216"></circle>
                                <line x1="32.8091966" y1="13.6536121" x2="32.8091966" y2="112.863636" id="路径-70" stroke="#FFFFFF" stroke-width="1.4" fill="none"></line>
                                <line x1="32.8091966" y1="28.6417637" x2="22.1316549" y2="17.964222" id="路径-71" stroke="#FFFFFF" stroke-width="1.4" fill="none"></line>
                                <line x1="32.8091966" y1="74.0977106" x2="43.648283" y2="63.2586242" id="路径-75" stroke="#FFFFFF" stroke-width="1.4" fill="none"></line>
                                <line x1="32.8091966" y1="88.5827123" x2="18.3241949" y2="74.0977106" id="路径-76" stroke="#FFFFFF" stroke-width="1.4" fill="none"></line>
                                <line x1="32.8091966" y1="36.4522733" x2="39.1924177" y2="30.0690522" id="路径-77" stroke="#FFFFFF" stroke-width="1.4" fill="none"></line>
                            </g>
                        </g>
                    </g>
                    <path d="M131.618555,28.8254872 C139.454497,28.8254872 149.378695,34.5119124 154.919542,40.0527599 L151.812858,79.802124 L150.715033,125.334093 L60.0059975,115.800189 L60.2775508,78.1296686 L59.5989664,37.3714318 C65.0443411,31.9820668 72.3665274,28.9220439 80.0178876,28.8277339 L80.3824807,28.8254872 L101.557742,28.8254872 L101.558123,24.0982145 L110.242543,24.0982145 L110.242924,28.8254872 L131.618555,28.8254872 Z" id="路径" stroke="#000000" stroke-width="0.7" fill="#FFFFFF" transform="translate(107.259254, 74.716154) rotate(-6.000000) translate(-107.259254, -74.716154) "></path>
                    <g id="check-circle" transform="translate(78.441114, 37.554101)">
                        <mask id="mask-4" fill="white">
                            <use xlink:href="#path-3"></use>
                        </mask>
                        <g id="容器"></g>
                        <path d="M28,0 C12.5375,0 0,12.5375 0,28 C0,43.4625 12.5375,56 28,56 C43.4625,56 56,43.4625 56,28 C56,12.5375 43.4625,0 28,0 Z" id="shapeGroup" fill="url(#linearGradient-5)" mask="url(#mask-4)"></path>
                        <path d="M38.734272,20.1006524 L27.0513899,35.8680683 C26.7201058,36.3181476 26.186193,36.5851222 25.6173799,36.5851222 C25.0485668,36.5851222 24.5146541,36.3181476 24.18337,35.8680683 L17.265728,26.5372139 C17.0549258,26.2510245 17.265728,25.8514394 17.6263108,25.8514394 L20.2280543,25.8514394 C20.7938918,25.8514394 21.3319923,26.1160295 21.6648379,26.5696127 L25.6146062,31.9046151 L34.3351621,20.1330512 C34.6680077,19.6848678 35.2005607,19.4148778 35.7719457,19.4148778 L38.3736892,19.4148778 C38.734272,19.4148778 38.9450742,19.814463 38.734272,20.1006524 Z" id="路径" fill="#FFFFFF" mask="url(#mask-4)"></path>
                    </g>
                    <g id="编组-36" transform="translate(157.799162, 71.926041) rotate(-6.000000) translate(-157.799162, -71.926041) translate(119.764164, 23.321151)">
                        <path d="M44.1945508,14.2566919 C53.5404276,14.2566919 61.1167577,21.833022 61.1167577,31.1788988 L61.1167577,71.3344851 C61.1167577,80.6803618 53.5404276,88.2566919 44.1945508,88.2566919 C34.848674,88.2566919 27.272344,80.6803618 27.272344,71.3344851 L27.272344,31.1788988 C27.272344,21.833022 34.848674,14.2566919 44.1945508,14.2566919 Z" id="矩形备份-31" stroke="#000000" stroke-width="0.7" fill="#FFFFFF" transform="translate(44.194551, 51.256692) scale(-1, 1) rotate(27.000000) translate(-44.194551, -51.256692) "></path>
                        <g id="编组-23备份" transform="translate(29.867379, 20.222094) scale(-1, 1) translate(-29.867379, -20.222094) translate(0.000000, -0.000000)">
                            <polygon id="路径-66备份" fill="#131415" transform="translate(13.449632, 36.162774) scale(-1, 1) translate(-13.449632, -36.162774) " points="5.60886964 40.444187 23.8076039 38.1416371 21.2038713 31.8814225 3.09165941 37.9133309"></polygon>
                            <path d="M38.021403,39.9810988 C42.8465929,39.0247106 50.0843778,37.5901284 59.7347577,35.677352 C52.2623346,19.7174882 37.3995707,7.76889262 30.9515881,4.30594609 C24.5036054,0.84299956 14.1864094,-0.531207628 0,0.183324526" id="路径" stroke="#000000" stroke-width="0.7" fill="#FFFFFF" transform="translate(29.867379, 19.990549) scale(-1, 1) translate(-29.867379, -19.990549) "></path>
                        </g>
                        <path d="M26.0409823,35.7587326 L45.8129742,40.2847951 L44.1734205,77.1899211 C44.1734205,86.0306154 32.5488724,97.3049788 23.7081781,97.3049788" id="路径" stroke="#000000" stroke-width="0.7" fill="#FFFFFF" transform="translate(34.760576, 66.531856) scale(-1, 1) rotate(40.000000) translate(-34.760576, -66.531856) "></path>
                        <path d="M27.8942677,29.1782569 L46.0430379,48.7466955" id="路径" stroke="#000000" stroke-width="0.7" fill="#FFFFFF"></path>
                    </g>
                    <g id="编组-36备份" transform="translate(49.640159, 79.872191) scale(-1, 1) rotate(-354.000000) translate(-49.640159, -79.872191) translate(11.105961, 34.670375)">
                        <path d="M30.9997797,29.0997514 C22.2612386,34.1449505 19.2011646,45.2484345 24.0618566,54.0418301 L24.2379214,54.3533212 L24.2379214,54.3533212 L36.7021742,75.9243107 C41.1048691,83.5437394 50.8507258,86.1514173 58.4701545,81.7487224 C58.6889341,81.6223061 58.9046757,81.4907036 59.1171963,81.3540265 C67.1150444,76.2104186 69.9582604,65.8706371 65.7147787,57.3609285 L55.2629612,36.4012716 C50.9759881,27.8043471 40.5315254,24.3104412 31.9346008,28.5974143 C31.6179571,28.755313 31.306205,28.9228367 30.9997797,29.0997514 Z" id="矩形备份-31" stroke="#000000" stroke-width="0.7" fill="#FFFFFF"></path>
                        <g id="编组-23备份" transform="translate(31.096628, 22.135621) scale(-1, 1) translate(-31.096628, -22.135621) translate(1.509419, -0.000000)">
                            <polygon id="路径-66备份" fill="#131415" transform="translate(22.019657, 38.471547) scale(-1, 1) translate(-22.019657, -38.471547) " points="3.09224493 44.2712413 40.9470692 38.9320679 38.3433366 32.6718534"></polygon>
                            <path d="M26.0713881,42.8160482 C31.5510742,41.7299409 42.5854175,39.6138525 59.174418,36.4677829 C51.7014094,20.507919 37.3995707,7.76889262 30.9515881,4.30594609 C24.5036054,0.84299956 14.1864094,-0.531207628 0,0.183324526" id="路径" stroke="#000000" stroke-width="0.7" fill="#FFFFFF" transform="translate(29.587209, 21.408024) scale(-1, 1) translate(-29.587209, -21.408024) "></path>
                        </g>
                        <path d="M44.5688911,46.9697116 L17.0509839,23.6118773 L-4.54747351e-13,53.4075572 C16.4865157,67.2318328 27.5054148,76.1397127 33.0566973,80.1311968 C41.3836211,86.1184229 52.805183,86.707013 59.5775477,81.0243243" id="路径" stroke="#000000" stroke-width="0.7" fill="#FFFFFF"></path>
                    </g>
                    <g id="编组-11" transform="translate(68.748923, 50.796370)" fill="#FFFFFF" stroke="#000000" stroke-width="0.7">
                        <path d="M10.1045727,29.3877799 C8.84671985,30.412026 8.21779345,31.586105 8.21779345,32.9100171 C8.21779345,34.8958853 10.5980587,37.3877799 16.3416433,37.3877799 C22.0852279,37.3877799 24.9536041,35.3938418 25.1122595,32.7152971 C25.2180297,30.9296005 24.0680025,29.5024579 21.6621778,28.433869" id="路径-22备份-2" transform="translate(16.668367, 32.910824) rotate(-8.000000) translate(-16.668367, -32.910824) "></path>
                        <path d="M6.47587832,21.2320657 C5.05579782,22.3884108 4.34575756,23.7139131 4.34575756,25.2085726 C4.34575756,27.450562 7.03301023,30.2638411 13.5173559,30.2638411 C20.0017016,30.2638411 23.3457576,27.4272398 23.3457576,25.2085726 C23.3457576,23.7294612 22.5789725,22.5808173 21.0454023,21.7626409" id="路径-22备份" transform="translate(13.845758, 25.747953) rotate(-8.000000) translate(-13.845758, -25.747953) "></path>
                        <path d="M4.07997551,12.3992283 C2.34749333,13.8066965 1.48125223,15.4370327 1.48125223,17.2902368 C1.48125223,20.0700429 4.44508559,23.5581819 11.596821,23.5581819 C18.7485564,23.5581819 22.4367933,20.0411261 22.4367933,17.2902368 C22.4367933,15.4563106 21.5910883,14.0321256 19.8996781,13.017682" id="路径-22"></path>
                        <path d="M10.761969,0.0505337794 C6.38204705,-0.275198458 3.13922461,0.973780689 1.03350164,3.79747122 C-2.12508281,8.03300702 2.19273281,13.0078867 10.761969,14.6388838 C19.3312051,16.2698808 21.4214375,11.6240694 21.7155124,9.55140591 C22.0095872,7.47874246 19.1334826,4.10297882 13.1184621,4.52114809 C12.2250655,4.58325777 11.2745103,4.70632179 10.2667967,4.89034016" id="路径-21"></path>
                    </g>
                    <g id="编组-11备份" transform="translate(131.578809, 65.056522) scale(-1, 1) rotate(-345.000000) translate(-131.578809, -65.056522) translate(118.748923, 45.796370)" fill="#FFFFFF" stroke="#000000" stroke-width="0.7">
                        <path d="M10.1045727,29.3877799 C8.84671985,30.412026 8.21779345,31.586105 8.21779345,32.9100171 C8.21779345,34.8958853 10.5980587,37.3877799 16.3416433,37.3877799 C22.0852279,37.3877799 24.9536041,35.3938418 25.1122595,32.7152971 C25.2180297,30.9296005 24.0680025,29.5024579 21.6621778,28.433869" id="路径-22备份-2" transform="translate(16.668367, 32.910824) rotate(-8.000000) translate(-16.668367, -32.910824) "></path>
                        <path d="M6.47587832,21.2320657 C5.05579782,22.3884108 4.34575756,23.7139131 4.34575756,25.2085726 C4.34575756,27.450562 7.03301023,30.2638411 13.5173559,30.2638411 C20.0017016,30.2638411 23.3457576,27.4272398 23.3457576,25.2085726 C23.3457576,23.7294612 22.5789725,22.5808173 21.0454023,21.7626409" id="路径-22备份" transform="translate(13.845758, 25.747953) rotate(-8.000000) translate(-13.845758, -25.747953) "></path>
                        <path d="M4.07997551,12.3992283 C2.34749333,13.8066965 1.48125223,15.4370327 1.48125223,17.2902368 C1.48125223,20.0700429 4.44508559,23.5581819 11.596821,23.5581819 C18.7485564,23.5581819 22.4367933,20.0411261 22.4367933,17.2902368 C22.4367933,15.4563106 21.5910883,14.0321256 19.8996781,13.017682" id="路径-22"></path>
                        <path d="M10.761969,0.0505337794 C6.38204705,-0.275198458 3.13922461,0.973780689 1.03350164,3.79747122 C-2.12508281,8.03300702 2.19273281,13.0078867 10.761969,14.6388838 C19.3312051,16.2698808 21.4214375,11.6240694 21.7155124,9.55140591 C22.0095872,7.47874246 19.1334826,4.10297882 13.1184621,4.52114809 C12.2250655,4.58325777 11.2745103,4.70632179 10.2667967,4.89034016" id="路径-21"></path>
                    </g>
                    <g id="编组-15" transform="translate(99.403644, 13.369671) rotate(-6.000000) translate(-99.403644, -13.369671) translate(87.335300, 1.194790)">
                        <circle id="椭圆形" stroke="#000000" stroke-width="0.7" fill="#FFFFFF" cx="3.13181818" cy="15.829326" r="3.13181818"></circle>
                        <circle id="椭圆形备份-12" stroke="#000000" stroke-width="0.7" fill="#FFFFFF" cx="21.0048708" cy="15.829326" r="3.13181818"></circle>
                        <ellipse id="椭圆形备份-10" stroke="#000000" stroke-width="0.7" fill="#FFFFFF" cx="12.1013053" cy="14.1861245" rx="9.45454545" ry="10.1636364"></ellipse>
                        <path d="M1.32152536,13.3235582 C1.55970169,14.7526162 2.28978014,16.4415595 3.51176069,18.3903883 L4.36991889,14.7127516 C8.41891656,15.1891042 11.2770326,15.0700161 12.9442669,14.3554871 C14.6115012,13.6409581 16.0405592,12.8073409 17.2314409,11.8546356 C16.9932646,13.2836936 17.1123527,14.1173107 17.5887054,14.3554871 C18.3032344,14.7127516 19.0177634,12.9264291 19.7322924,12.9264291 C20.2086451,12.9264291 20.5659096,14.7127516 20.8040859,18.2853966 C22.2467022,15.6305899 23.0209479,12.7291988 23.1268228,9.58122306 C23.2856352,4.8592595 19.8413261,4.91557558 19.0928236,5.44132944 C18.344321,5.96708331 21.5656143,1.21547507 14.8090059,0.218891549 C8.05239738,-0.777691968 4.37110319,1.79825055 2.31945772,4.51753098 C0.267812243,7.2368114 0.964260861,11.1799712 1.32152536,13.3235582 Z" id="路径-4" fill="#131415"></path>
                        <polygon id="路径-80" fill="#131415" points="18.218154 6.62721886 20.062953 1.48031351 20.9808376 2.8470724"></polygon>
                        <polygon id="路径-80备份" fill="#131415" points="17.3675943 5.92269119 21.3650953 3.32803098 21.2071568 4.85250581"></polygon>
                        <circle id="椭圆形" fill="#131415" cx="7.8614703" cy="16.9043063" r="1.06363636"></circle>
                        <circle id="椭圆形备份-11" fill="#131415" cx="15.8726422" cy="16.9043063" r="1.06363636"></circle>
                        <path d="M12.4443978,14.1096712 L11.1396874,18.5429436 C10.9914384,19.0466787 11.213057,19.5857804 11.6727305,19.8396054 L13.3325095,20.7561113 L13.3325095,20.7561113" id="路径-5" stroke="#000000" stroke-width="0.7" fill="#FFFFFF" transform="translate(12.109225, 17.432891) rotate(-2.000000) translate(-12.109225, -17.432891) "></path>
                    </g>
                    <path d="M98.5616184,41.7267647 C101.895231,41.7267647 104.597659,38.1235284 104.597659,33.6787111 C104.597659,29.2338939 101.895231,25.6306575 98.5616184,25.6306575" id="路径" stroke="#000000" stroke-width="0.7" fill="#FFFFFF" stroke-linecap="round" transform="translate(101.579638, 33.678711) rotate(-276.000000) translate(-101.579638, -33.678711) "></path>
                    <line x1="0.441114441" y1="120.514437" x2="192.756511" y2="120.514437" id="路径-81" stroke="#9298A1" stroke-width="0.7" stroke-linecap="round" fill-rule="nonzero"></line>
                    <line x1="196.032024" y1="120.514437" x2="204.009296" y2="120.514437" id="路径-81备份" stroke="#9298A1" stroke-width="0.7" stroke-linecap="round" fill-rule="nonzero"></line>
                </g>
            </g>
        </g>
    </g>
</svg>