<?xml version="1.0" encoding="UTF-8"?>
<svg width="20px" height="20px" viewBox="0 0 20 20" version="1.1" xmlns="http://www.w3.org/2000/svg" xmlns:xlink="http://www.w3.org/1999/xlink">
    <title>添加</title>
    <g id="页面-1" stroke="none" stroke-width="1" fill="none" fill-rule="evenodd">
        <g id="切图" transform="translate(-2892.000000, -345.000000)" fill="#FFFFFF" fill-rule="nonzero">
            <g id="编组" transform="translate(2872.000000, 325.000000)">
                <g id="添加" transform="translate(20.000000, 20.000000)">
                    <rect id="矩形" opacity="0" x="0" y="0" width="20" height="20"></rect>
                    <path d="M16.575,9.0625 L10.95,9.0625 L10.95,3.4375 C10.95,2.91973305 10.530267,2.5 10.0125,2.5 C9.49473305,2.5 9.075,2.91973305 9.075,3.4375 L9.075,9.0625 L3.45,9.0625 C2.93223305,9.0625 2.5125,9.48223305 2.5125,10 C2.5125,10.517767 2.93223305,10.9375 3.45,10.9375 L9.075,10.9375 L9.075,16.5625 C9.075,17.080267 9.49473305,17.5 10.0125,17.5 C10.530267,17.5 10.95,17.080267 10.95,16.5625 L10.95,10.9375 L16.575,10.9375 C17.092767,10.9375 17.5125,10.517767 17.5125,10 C17.5125,9.48223305 17.092767,9.0625 16.575,9.0625 Z" id="路径"></path>
                </g>
            </g>
        </g>
    </g>
</svg>