<?xml version="1.0" encoding="UTF-8"?>
<svg width="29px" height="25px" viewBox="0 0 29 25" version="1.1" xmlns="http://www.w3.org/2000/svg" xmlns:xlink="http://www.w3.org/1999/xlink">
    <!-- Generator: Sketch 58 (84663) - https://sketch.com -->
    <title>编组 14</title>
    <desc>Created with Sketch.</desc>
    <g id="页面-1" stroke="none" stroke-width="1" fill="none" fill-rule="evenodd">
        <g id="画板" transform="translate(-666.000000, -356.000000)">
            <g id="编组-14" transform="translate(666.000000, 356.000000)">
                <path d="M29,3 L29,25 L29,25 L0,0 L26,0 C27.6568542,-3.04359188e-16 29,1.34314575 29,3 Z" id="三角形" fill="#E73928" opacity="0.400000006"></path>
                <path d="M17,3.20710678 C17.2761424,3.20710678 17.5,3.43096441 17.5,3.70710678 L17.5,9.20710678 L26,9.20710678 C26.2761424,9.20710678 26.5,9.43096441 26.5,9.70710678 C26.5,9.98324916 26.2761424,10.2071068 26,10.2071068 L17,10.2071068 L17,10.2071068 C16.7238576,10.2071068 16.5,9.98324916 16.5,9.70710678 L16.5,3.70710678 C16.5,3.43096441 16.7238576,3.20710678 17,3.20710678 Z" id="形状结合" fill="#FFFFFF" transform="translate(21.500000, 6.707107) rotate(-45.000000) translate(-21.500000, -6.707107) "></path>
            </g>
        </g>
    </g>
</svg>